# xmcd
#
# Track frame offsets:
#	150
#	19770
#	34825
#	54190
#	68877
#	92200
#	108347
#	123585
#	137240
#	153967
#
# Disc length: 2376 seconds
#
# Revision: 0
# Processed by: cddbd v1.5.2PL0 Copyright (c) Steve Scherf et al.
# Submitted via: dBpowerAMP V4.0
#
DISCID=8209460a
DTITLE=Montgomery Gentry - Super Hits
DYEAR=2007
DGENRE=Country
TTITLE0=She Couldn't Change Me
TTITLE1=Lonely And Gone
TTITLE2=Daddy Won't Sell The Farm
TTITLE3=(I'm A) Ramblin' Man
TTITLE4=Cold One Comin' On
TTITLE5=All Night Long
TTITLE6=If You Ever Stop Loving Me
TTITLE7=Bad For Good
TTITLE8=You Do Your Thing
TTITLE9=Good Clean Fun
EXTD=
EXTT0=
EXTT1=
EXTT2=
EXTT3=
EXTT4=
EXTT5=
EXTT6=
EXTT7=
EXTT8=
EXTT9=
PLAYORDER=
